<?xml version="1.0" standalone="no"?>
<!DOCTYPE svg PUBLIC "-//W3C//DTD SVG 20010904//EN"
 "http://www.w3.org/TR/2001/REC-SVG-20010904/DTD/svg10.dtd">
<svg version="1.0" xmlns="http://www.w3.org/2000/svg"
 width="200.000000pt" height="200.000000pt" viewBox="0 0 200.000000 200.000000"
 preserveAspectRatio="xMidYMid meet">

<g transform="translate(0.000000,200.000000) scale(0.100000,-0.100000)"
fill="#000000" stroke="none">
<path d="M0 1000 l0 -1000 1000 0 1000 0 0 1000 0 1000 -1000 0 -1000 0 0
-1000z m1185 640 c22 -6 11 -8 -45 -9 -42 0 -100 -8 -130 -17 -30 -9 -65 -17
-77 -17 -11 -1 -20 -5 -18 -8 2 -3 -10 -14 -28 -24 -18 -10 -57 -36 -87 -59
-30 -22 -59 -41 -65 -41 -5 0 -10 -7 -10 -15 0 -8 -10 -29 -23 -45 -13 -17
-20 -23 -17 -15 4 8 -3 3 -16 -12 -18 -21 -30 -26 -46 -22 -13 4 -20 10 -17
15 3 5 3 9 0 9 -10 0 -36 -59 -50 -112 l-15 -53 0 56 c-1 46 5 65 34 115 70
118 212 217 357 249 68 15 205 17 253 5z m275 -263 c-63 -62 -144 -136 -179
-165 l-63 -53 -25 22 c-13 13 -21 29 -19 36 7 18 4 17 -67 -17 -34 -17 -53
-24 -42 -15 44 35 491 305 505 305 3 -1 -47 -51 -110 -113z m-940 -52 c-15
-44 -14 -151 1 -207 43 -160 179 -301 354 -368 84 -32 239 -39 320 -15 80 23
140 55 200 105 l50 42 -55 -53 c-64 -62 -152 -112 -235 -134 -70 -18 -202 -20
-277 -4 -122 26 -265 117 -332 211 -25 35 -36 44 -31 28 14 -51 72 -134 135
-193 57 -54 41 -57 -17 -4 -13 11 -33 21 -45 23 -13 1 -24 3 -25 4 -2 2 -9 3
-15 4 -23 2 -87 147 -100 224 -16 94 0 204 43 307 32 77 51 97 29 30z m453
-232 l127 -128 -48 -6 c-29 -4 -59 -1 -79 7 -37 15 -41 19 -15 21 61 4 63 6
44 28 -9 11 -44 49 -78 84 l-61 63 5 -33 c3 -25 1 -31 -7 -23 -6 6 -12 27 -13
47 l-1 36 -46 -37 -46 -37 43 53 c24 28 45 52 46 52 2 0 60 -57 129 -127z
m511 -305 c-22 -42 -99 -124 -153 -161 -56 -38 -50 -22 13 32 26 23 71 69 100
101 28 33 52 60 54 60 1 0 -5 -14 -14 -32z"/>
</g>
</svg>
